<?xml version="1.0" encoding="UTF-8" standalone="no"?>
<svg width="250px" height="250px" viewBox="0 0 250 250" version="1.1" xmlns="http://www.w3.org/2000/svg" xmlns:xlink="http://www.w3.org/1999/xlink">
    <!-- Generator: Sketch 47.1 (45422) - http://www.bohemiancoding.com/sketch -->
    <title>MIAOH</title>
    <desc>Created with Sketch.</desc>
    <defs></defs>
    <g id="Page-1" stroke="none" stroke-width="1" fill="none" fill-rule="evenodd">
        <g id="MIAOH" fill-rule="nonzero">
            <g id="Group" transform="translate(0.000000, 20.000000)">
                <path d="M249.283063,162.818783 C249.283063,162.818783 227.606275,162.481159 226.130229,162.565565 L226.130229,149.904696 L217.695682,136.019942 L217.695682,136.019942 L217.695682,121.502145 L228.238866,104.620986 L211.622807,104.620986 C210.136013,96.1724192 207.963963,87.8590921 205.128205,79.7634783 C200.169599,66.2464931 193.249356,53.5337177 184.590081,42.034087 C164.55803,16.2481159 135.543185,0.633043478 106.950067,0.0844057971 C95.7786893,-0.276519004 84.6926798,2.14529478 74.6879217,7.13228986 C50.8181511,8.27176812 39.3049933,20.5950145 39.347166,26.5456232 C35.7575266,28.9485543 33.3995765,32.8041692 32.8947368,37.0963478 C32.5573549,37.0963478 21.6767881,39.3331014 24.2493252,56.7206957 C28.4665992,84.9966377 45.0404858,93.7326377 45.0404858,93.7326377 C44.8697159,89.0646587 45.541157,84.4040983 47.0226046,79.9744928 C49.1312416,76.5982609 60.391363,80.9029565 60.8552632,90.3142029 C61.0661269,94.5344928 57.2284076,99.6832464 50.9446694,104.494377 L29.5209177,104.494377 L39.8532389,121.502145 L39.8532389,135.597913 L31.418691,149.862493 L31.418691,165.477565 C28.2557355,166.27942 24.5023617,167.418899 24.5023617,167.418899 C24.5023617,167.418899 16.4895412,175.859478 13.7483131,179.657739 L0,197.678377 C0,197.678377 14.6761134,192.149797 24.3758435,189.659826 C19.1464238,194.80858 6.32591093,207.596058 6.32591093,207.596058 L51.7459514,196.285681 L55.0354251,192.782841 C58.0841743,196.071253 60.6668196,199.763385 62.7108637,203.755594 C66.1178457,202.91357 69.6783756,202.91357 73.0853576,203.755594 L95.0995277,209.537391 C95.0995277,209.537391 91.810054,205.317101 87.0445344,198.522435 L186.276991,196.70771 L187.373482,195.315014 L191.253374,199.535304 L197.579285,195.610435 L201.50135,198.142609 C204.158232,198.775652 205.718623,198.522435 217.105263,193.458087 C228.491903,188.393739 230.60054,183.244986 231.06444,179.404522 L249.283063,162.818783 Z" id="Shape" fill="#FFFFFF"></path>
                <path d="M228.91363,165.055536 C227.14383,164.953936 225.369665,164.953936 223.599865,165.055536 L223.599865,150.664348 L215.165317,137.370435 L215.165317,120.193855 L223.599865,106.942145 L209.640688,106.942145 C208.101303,97.941746 205.844894,89.0790041 202.89305,80.4387246 C197.995558,67.1832389 191.190192,54.7143994 182.692308,43.4267826 C163.250675,18.8224928 134.994939,3.33402899 106.907895,2.65878261 C96.0143706,2.27621971 85.2025849,4.67248869 75.4892038,9.62226087 C63.7230094,10.2975072 52.7159244,13.2517101 44.4500675,21.7766957 C42.8603497,23.3561151 42.0039058,25.5293654 42.0883941,27.7695072 C38.5458839,30.386087 34.6238192,33.8889275 35.5516194,38.6578551 C35.129892,39.501913 33.9490553,39.0376812 33.2321188,39.5441159 C26.6953441,42.4561159 25.6410256,49.081971 26.7375169,56.172058 C28.3115151,68.562752 34.1406939,80.0205802 43.227058,88.5838841 C42.9591186,85.1085195 43.6291187,81.6249428 45.167004,78.4973913 C46.2702294,76.7606825 48.2696903,75.8094394 50.3120783,76.0496232 C52.0141537,76.157847 53.6642746,76.6793105 55.1197706,77.5689275 C60.0446257,79.8800071 63.2322754,84.7875907 63.3434548,90.2297971 C63.3434548,96.4336232 57.9453441,102.299826 51.7459514,106.857739 L34.0334008,106.857739 L42.4679487,120.109449 L42.4679487,136.990609 L34.0334008,150.579942 L34.0334008,167.461101 C29.8161269,168.473971 27.201417,169.233623 26.9062078,169.360232 L25.7253711,169.697855 L24.8397436,170.457507 C18.3742009,177.53559 12.332937,184.990401 6.74763833,192.782841 C6.74763833,192.782841 29.9004723,185.101913 33.7381916,184.342261 C30.9547908,186.832232 14.6339406,203.080348 14.6339406,203.080348 L50.3964238,194.175536 L55.0354251,189.026783 C57.6970047,191.736856 60.0453422,194.738082 62.0360999,197.973797 L63.8917004,200.885797 L67.3920378,200.548174 C69.5163065,200.525228 71.632746,200.809517 73.675776,201.392232 L88.6892713,205.612522 L82.1524966,196.327884 L184.927463,194.470957 L187.204791,191.601159 L191.675101,196.665507 L197.537112,192.993855 C198.719159,194.006716 200.039885,194.845195 201.459177,195.483826 C203.272605,196.11687 205.128205,196.665507 215.966599,191.558957 C229.419703,185.186319 228.618421,178.64487 228.618421,178.64487 L242.91498,165.435362 L228.91363,165.055536 Z" id="Shape" fill="#231F20"></path>
                <path d="M140.435223,28.6557681 C145.748988,32.876058 152.496626,37.3073623 152.791835,44.6506667 C153.17139,54.5683478 145.959852,58.9996522 137.947031,62.5868986 C134.097384,63.9047054 130.077432,64.6580969 126.012146,64.8236522 C144.029052,68.905637 161.244355,75.9507046 176.956815,85.6718841 C172.341814,75.1902383 164.799973,66.2654503 155.237854,59.9703188 C162.106313,60.8688393 168.643007,63.465081 174.25776,67.5246377 C170.575649,60.8333279 165.428643,55.0622509 159.202092,50.6434783 C161.184211,40.9790145 147.47807,30.9347246 140.435223,28.697971 M88.6470985,31.9053913 C83.1224696,34.4375652 74.6879217,36.589913 68.3198381,32.876058 C70.15099,34.586911 71.5897846,36.6746551 72.537112,38.9954783 C82.4055331,37.856 86.5384615,48.8287536 94.4669366,52.7114203 C97.7298782,54.3297241 101.428531,54.8479059 105.010121,54.1885217 C105.010121,54.1885217 94.3825911,50.9388986 93.4547908,46.9296232 C108.510459,52.0361739 114.035088,40.1771594 114.035088,40.1771594 C102.859312,49.2507826 89.1109987,42.1606957 85.3154521,37.4761739 C86.8758435,36.4633043 88.562753,35.7036522 90.1653171,34.7751884 C93.9096066,39.1249446 99.769906,41.0146137 105.347503,39.6707246 C110.188028,38.614087 113.379282,33.9806913 112.643387,29.0777971 C117.944184,28.8595851 123.228085,29.810503 128.120783,31.8631884 C126.37494,32.7737129 125.002376,34.2666976 124.240891,36.0834783 C130.904182,35.5391812 137.602764,36.5504658 143.809042,39.0376812 C142.594163,36.3347464 140.860347,33.8970644 138.70614,31.8631884 C132.202087,27.103443 124.369749,24.5055574 116.312416,24.4354783 C106.616347,24.6809609 97.1239594,27.2729617 88.6470985,31.9897971 M167.467949,35.8302609 C175.568279,45.4426118 182.140002,56.246735 186.951754,67.8622609 C192.321004,80.4487135 196.4729,93.5209951 199.35054,106.899942 L195.639339,106.899942 C195.639339,106.899942 185.728745,100.527304 178.770243,96.9822609 C173.828213,94.5456405 168.727832,92.4448109 163.503711,90.694029 C170.011333,95.9198336 175.697783,102.094044 180.372807,109.010087 L173.751687,120.320464 L165.696694,106.857739 L110.53475,106.857739 C110.318063,100.729228 107.494323,94.9855653 102.774966,91.0738551 C105.460955,91.393336 108.12342,91.8867379 110.745614,92.5509565 C107.004661,85.680681 100.886229,80.4132655 93.5391363,77.7377391 C100.815469,79.3896011 107.827016,82.0456675 114.37247,85.6296812 C113.824224,69.888 107.835695,59.7171014 99.9915655,58.1977971 C89.2795374,55.6230771 78.3219613,54.2081852 67.3076923,53.9775072 C69.4643627,50.5339239 70.3310507,46.4366423 69.7537112,42.413913 C69.4163293,36.1256812 65.1990553,33.0870725 60.9396086,29.4998261 C59.6322537,28.0227246 60.5178812,24.941913 62.2047908,22.0721159 C59.7105823,22.6455092 57.4821158,24.0430135 55.8788799,26.0391884 C53.8967611,26.0391884 51.3663968,26.0391884 49.4686235,26.0391884 C50.263392,23.0162565 52.4357602,20.5451799 55.3306343,19.3711304 C59.7277063,17.162834 64.3911589,15.531586 69.2054656,14.5177971 C66.9836422,16.0880314 65.26865,18.2736432 64.2712551,20.806029 C73.507085,12.7452754 85.3576248,10.4663188 97.3346829,8.35617391 C124.831309,5.65518841 147.94197,17.8518261 167.510121,35.8302609" id="Shape" fill="#CE0E2D"></path>
                <path d="M50.8603239,43.0047536 C52.972726,42.0912302 55.1421537,41.3158805 57.3549258,40.6835942 C58.6136019,41.732479 59.7332142,42.9379866 60.6865722,44.2708406 C61.2769906,42.2028986 59.1683536,35.5770435 56.4692982,38.1092174 C54.3178692,39.3863785 52.4171362,41.0453462 50.8603239,43.0047536 M53.6858974,30.3438841 C57.7891576,31.1891916 61.2390835,33.9511061 62.9639001,37.7715942 C65.7473009,43.3845797 66.7594467,52.3315942 62.5843455,57.6491594 C75.6549014,56.9559604 88.7453771,58.570226 101.256748,62.418087 C106.099418,66.0117221 109.035196,71.6232228 109.227395,77.6533333 L104.504049,75.0789565 C94.2139001,69.4237681 80.3390688,68.1998841 67.8137652,68.621913 C60.7709177,69.2127536 53.6858974,68.3686957 48.1190958,71.9981449 C49.05831,70.4640299 50.1767326,69.0472926 51.4507422,67.7778551 C56.2162618,64.1062029 63.8073549,65.1190725 70.6393387,64.5704348 C81.7252823,64.3010871 92.731927,66.5068737 102.859312,71.0274783 C101.467611,65.0768696 94.9730094,63.6841739 90.2074899,62.8401159 C78.708246,60.7962614 66.9712374,60.4549906 55.372807,61.8272464 C45.8839406,63.4731594 42.7209852,73.6018551 41.0340756,81.4515942 C36.7752015,73.8207639 33.9184615,65.4874117 32.5995277,56.8473043 C32.5995277,52.6270145 31.3343455,47.8158841 34.6238192,44.6928696 C37.9395977,43.6366177 41.5402336,43.9558896 44.6187584,45.5791304 C50.2730735,48.2367801 54.9072947,52.6668857 57.8188259,58.1977971 C57.318626,49.6222554 51.2461017,42.395247 42.8896761,40.4303768 C42.0883941,39.7551304 39.6002024,40.4303768 40.4436572,38.3624348 C42.9242317,33.3802719 48.0397925,30.2627987 53.601552,30.3438841" id="Shape" fill="#8C9091"></path>
                <polygon id="Shape" fill="#8C9091" points="105.769231 141.126493 103.744939 141.08429 103.829285 116.437797 105.937922 116.353391 109.353914 110.698203 90.7557355 110.613797 94.2139001 116.395594 96.1538462 116.395594 96.1960189 141.08429 94.1295547 141.08429 90.6292173 146.823884 109.058704 146.739478"></polygon>
                <polygon id="Shape" fill="#8C9091" points="213.562753 141.126493 211.707152 141.08429 211.580634 116.437797 213.731444 116.353391 217.147436 110.698203 198.549258 110.613797 202.007422 116.395594 204.031714 116.395594 203.947368 141.08429 201.923077 141.08429 198.42274 146.823884 216.852227 146.739478"></polygon>
                <polygon id="Shape" fill="#8C9091" points="83.0802969 141.042087 81.0138327 141.042087 81.0138327 116.395594 83.0802969 116.395594 86.5384615 110.613797 73.7601215 110.613797 63.5964912 128.001391 53.3906883 110.613797 40.6545209 110.613797 44.1126856 116.395594 46.1791498 116.395594 46.1791498 141.042087 44.1126856 141.042087 40.6545209 146.823884 59.2105263 146.823884 55.7523617 141.042087 53.7280702 141.042087 53.7280702 124.287536 63.5964912 141.08429 73.4227395 124.287536 73.4227395 141.042087 71.398448 141.042087 67.8981107 146.823884 86.5384615 146.823884"></polygon>
                <polygon id="Shape" fill="#8C9091" points="193.530702 141.042087 191.464238 141.042087 191.464238 116.395594 193.530702 116.395594 196.988866 110.613797 184.252699 110.613797 174.046896 128.001391 163.841093 110.613797 151.104926 110.613797 154.605263 116.395594 156.629555 116.395594 156.629555 141.042087 154.605263 141.042087 151.104926 146.823884 169.703104 146.823884 166.202767 141.042087 164.178475 141.042087 164.178475 124.287536 174.046896 141.08429 183.873144 124.287536 183.873144 141.042087 181.848853 141.042087 178.390688 146.823884 196.988866 146.823884"></polygon>
                <path d="M130.102901,121.502145 L127.61471,129.225275 L132.633266,129.225275 L130.102901,121.502145 Z M149.586707,146.823884 L131.410256,146.823884 L134.910594,141.042087 L136.513158,141.042087 L134.952767,136.188754 L125.295209,136.188754 L123.692645,141.042087 L125.295209,141.042087 L128.837719,146.823884 L110.745614,146.823884 L114.203779,141.042087 L115.76417,141.042087 L123.776991,116.395594 L121.879217,116.395594 L118.37888,110.613797 L142.164305,110.613797 L138.70614,116.395594 L136.470985,116.395594 L144.525978,141.042087 L146.044197,141.042087 L149.586707,146.823884 Z" id="Shape" fill="#8C9091"></path>
                <path d="M100.497638,30.0906667 C99.8983992,30.1912793 99.3066344,30.3322765 98.7263833,30.5126957 C98.7263833,30.8503188 100.202429,32.4962319 97.5877193,34.0155362 C96.1501833,34.5286411 94.5461415,34.0504997 93.6234818,32.8338551 L91.9787449,33.8889275 C93.3627947,35.5284018 95.4008854,36.4709203 97.5455466,36.4633043 C98.6913834,36.2861583 99.7689417,35.8052819 100.666329,35.0706087 C101.749307,33.5875154 101.749307,31.5737599 100.666329,30.0906667" id="Shape" fill="#FFFFFF"></path>
                <path d="M44.365722,152.479072 L46.6852227,152.479072 L46.6852227,156.699362 C46.6852227,157.585623 47.0226046,157.965449 47.9925776,157.965449 L50.3120783,157.965449 C51.2820513,157.965449 51.6194332,157.585623 51.6194332,156.699362 L51.6194332,152.479072 L53.9811066,152.479072 L53.9811066,157.121391 C53.9811066,158.936116 53.0111336,159.780174 50.8603239,159.780174 L47.4865047,159.780174 C45.335695,159.780174 44.365722,158.936116 44.365722,157.121391 L44.365722,152.479072 Z" id="Shape" fill="#FFFFFF"></path>
                <polygon id="Shape" fill="#FFFFFF" points="63.9760459 152.479072 67.6029015 152.479072 71.9888664 157.754435 72.0310391 157.754435 72.0310391 152.479072 74.3505398 152.479072 74.3505398 159.695768 70.7236842 159.695768 66.3377193 154.462609 66.3377193 154.462609 66.3377193 159.695768 63.9760459 159.695768"></polygon>
                <rect id="Rectangle-path" fill="#FFFFFF" x="84.51417" y="152.479072" width="2.31950067" height="7.21669565"></rect>
                <polygon id="Shape" fill="#FFFFFF" points="96.2381916 152.479072 98.8107287 152.479072 101.804993 157.838841 104.757085 152.479072 107.329622 152.479072 103.238866 159.695768 100.328947 159.695768"></polygon>
                <polygon id="Shape" fill="#FFFFFF" points="116.607625 152.479072 124.957827 152.479072 124.957827 154.167188 118.927126 154.167188 118.927126 155.306667 124.620445 155.306667 124.620445 156.825971 118.927126 156.825971 118.927126 157.965449 125.084345 157.965449 125.084345 159.695768 116.607625 159.695768"></polygon>
                <path d="M137.272267,156.024116 L141.109987,156.024116 C141.742578,156.024116 141.995614,156.024116 141.995614,155.264464 L141.995614,155.264464 C141.995614,154.63142 141.658232,154.504812 140.899123,154.504812 L137.272267,154.504812 L137.272267,156.024116 Z M134.910594,152.479072 L142.164305,152.479072 C143.977733,152.479072 144.483806,153.32313 144.483806,154.63142 L144.483806,155.264464 C144.483806,156.23513 144.230769,156.783768 143.176451,157.036986 L143.176451,157.036986 C143.851215,157.036986 144.441633,157.459014 144.441633,158.640696 L144.441633,159.86458 L142.122132,159.86458 L142.122132,159.020522 C142.122132,158.218667 141.869096,158.007652 141.152159,158.007652 L137.483131,158.007652 L137.483131,159.86458 L135.121457,159.86458 L134.910594,152.479072 Z" id="Shape" fill="#FFFFFF"></path>
                <path d="M154.141363,157.332406 L156.460864,157.332406 C156.460864,158.092058 156.798246,158.176464 157.473009,158.176464 L160.340756,158.176464 C160.846829,158.176464 161.352901,158.176464 161.352901,157.54342 C161.352901,156.910377 161.099865,156.868174 158.063428,156.868174 C155.026991,156.868174 154.141363,156.488348 154.141363,154.715826 C154.141363,152.943304 154.141363,152.394667 157.219973,152.394667 L160.509447,152.394667 C163.208502,152.394667 163.419366,153.280928 163.419366,154.547014 L163.419366,154.758029 L161.099865,154.758029 C161.099865,154.251594 161.099865,154.04058 159.961201,154.04058 L157.388664,154.04058 C156.840418,154.04058 156.460864,154.04058 156.460864,154.589217 C156.460864,155.137855 156.756073,155.222261 159.286437,155.222261 C162.913293,155.222261 163.756748,155.222261 163.756748,157.54342 C163.756748,159.86458 163.081984,159.780174 159.961201,159.780174 L157.093455,159.780174 C154.984818,159.780174 154.141363,159.400348 154.141363,157.838841 L154.141363,157.332406 Z" id="Shape" fill="#FFFFFF"></path>
                <rect id="Rectangle-path" fill="#FFFFFF" x="173.79386" y="152.479072" width="2.31950067" height="7.21669565"></rect>
                <polygon id="Shape" fill="#FFFFFF" points="185.686572 152.479072 194.58502 152.479072 194.58502 154.293797 191.337719 154.293797 191.337719 159.695768 188.976046 159.695768 188.976046 154.293797 185.686572 154.293797"></polygon>
                <polygon id="Shape" fill="#FFFFFF" points="207.574224 157.205797 203.35695 152.479072 206.182524 152.479072 208.755061 155.433275 211.285425 152.479072 214.110999 152.479072 209.893725 157.205797 209.893725 159.695768 207.574224 159.695768"></polygon>
                <polygon id="Shape" fill="#FFFFFF" points="102.479757 142.350377 102.479757 115.17171 105.263158 115.298319 107.118758 111.753275 92.9908907 111.879884 94.9308367 115.17171 97.5877193 115.17171 97.629892 142.308174 94.8464912 142.308174 92.9908907 145.6 106.865722 145.642203 105.052294 142.350377"></polygon>
                <polygon id="Shape" fill="#FFFFFF" points="210.273279 142.350377 210.231107 115.17171 213.05668 115.087304 214.912281 111.753275 200.74224 111.879884 202.724359 115.17171 205.170378 115.17171 205.212551 142.308174 202.640013 142.308174 200.657895 145.6 214.827935 145.473391 212.845816 142.350377"></polygon>
                <path d="M125.885628,130.491362 L134.320175,130.491362 L130.102901,117.450667 L125.885628,130.491362 Z M147.351552,145.557797 L133.729757,145.557797 L135.711876,142.308174 L138.368758,142.308174 L135.964912,134.922667 L124.451754,134.922667 L122.090081,142.308174 L124.662618,142.308174 L126.644737,145.557797 L112.938596,145.557797 L114.920715,142.308174 L116.860661,142.308174 L125.674764,115.129507 L122.722672,115.129507 L120.740553,111.837681 L140.182186,111.837681 L138.200067,115.129507 L134.952767,115.129507 L143.851215,142.308174 L145.580297,142.308174 L147.351552,145.557797 Z" id="Shape" fill="#FFFFFF"></path>
                <polygon id="Shape" fill="#FFFFFF" points="190.241228 142.308174 190.241228 115.129507 192.813765 115.129507 194.795884 111.879884 184.969636 111.879884 174.046896 130.449159 163.166329 111.879884 153.297908 111.879884 155.280027 115.129507 157.894737 115.129507 157.852564 142.308174 155.280027 142.308174 153.297908 145.6 167.467949 145.6 165.528003 142.308174 162.913293 142.308174 162.913293 119.68742 174.046896 138.594319 185.307018 119.68742 185.307018 142.308174 182.565789 142.308174 180.583671 145.6 194.795884 145.6 192.813765 142.308174"></polygon>
                <polygon id="Shape" fill="#FFFFFF" points="79.7908232 142.308174 79.7908232 115.129507 82.3211876 115.129507 84.3454791 111.879884 74.5192308 111.879884 63.5964912 130.449159 52.6737517 111.879884 42.8475034 111.879884 44.8296221 115.129507 47.4021592 115.129507 47.4021592 142.308174 44.8296221 142.308174 42.8475034 145.6 57.0175439 145.6 55.0354251 142.308174 52.462888 142.308174 52.462888 119.68742 63.5964912 138.594319 74.645749 119.68742 74.645749 142.308174 72.0732119 142.308174 70.1332659 145.6 84.3454791 145.6 82.3211876 142.308174"></polygon>
                <polygon id="Shape" fill="#CE0E2D" points="95.2260459 177.209971 89.7435897 177.33658 87.3819163 180.375188 91.9787449 180.332986 89.6170715 183.413797 85.0202429 183.498203 81.8994602 187.507478 87.5506073 187.423072 85.1889339 190.503884 73.0010121 190.757101 83.2489879 177.378783 80.7607962 177.463188 83.1646424 174.382377 97.5877193 174.129159"></polygon>
                <path d="M148.152834,176.365913 L147.857625,176.365913 L141.152159,183.667014 L143.977733,183.667014 L148.152834,176.365913 Z M146.718961,189.57542 L140.561741,189.57542 L142.164305,186.494609 L138.410931,186.494609 L135.290148,189.533217 L129.175101,189.533217 L145.748988,173.074087 L155.195682,173.074087 L146.718961,189.57542 Z" id="Shape" fill="#CE0E2D"></path>
                <polygon id="Shape" fill="#CE0E2D" points="168.269231 188.98458 162.533738 189.111188 165.570175 182.105507 164.811066 182.14771 158.40081 189.153391 152.665317 189.28 157.810391 173.031884 165.317139 172.905275 162.280702 181.092638 169.829622 172.82087 173.119096 172.736464 169.576586 180.966029 177.673752 172.652058 185.138327 172.525449"></polygon>
                <polygon id="Shape" fill="#CE0E2D" points="189.482119 179.320116 199.181849 172.272232 201.417004 175.268638 193.024629 180.923826 197.115385 186.536812 192.813765 189.237797 187.0361 182.696348 182.27058 188.731362 175.733806 188.857971 188.343455 172.483246 194.838057 172.356638"></polygon>
                <path d="M228.829285,170.626319 L224.232456,174.846609 C218.822067,174.558829 213.452522,175.927938 208.839406,178.771478 L223.009447,178.771478 C223.009447,178.771478 223.009447,182.232116 213.689271,186.410203 C210.586823,188.137068 207.287588,189.483212 203.863023,190.419478 L198.844467,187.001043 C203.633287,186.197159 208.226684,184.493094 212.381916,181.978899 L199.730094,182.232116 C199.828454,180.379786 200.739044,178.665416 202.218286,177.547594 C211.285425,170.49971 228.955803,170.752928 228.955803,170.752928" id="Shape" fill="#CE0E2D"></path>
                <path d="M109.058704,176.956754 L106.317476,176.956754 L98.4733468,187.169855 L101.214575,187.169855 L109.058704,176.956754 Z M116.101552,176.112696 L107.160931,187.760696 L101.130229,190.208464 L89.6170715,190.208464 L99.9915655,177.083362 L97.798583,177.083362 L100.244602,174.002551 L113.655533,173.749333 L116.101552,176.112696 Z" id="Shape" fill="#CE0E2D"></path>
                <path d="M138.663968,172.441043 L144.104251,165.308754 L137.609649,165.308754 L130.862011,174.171362 C128.964238,174.762203 127.235155,175.395246 125.632591,176.02829 L133.476721,165.393159 L122.511808,165.393159 L119.433198,169.613449 L123.987854,169.613449 L108.67915,189.997449 L115.131579,189.997449 L121.584008,181.55687 C123.696951,180.194585 125.894373,178.968223 128.162955,177.885217 L118.927126,189.870841 L125.421727,189.870841 L137.609649,173.875942 C141.447368,172.483246 144.104251,171.765797 144.104251,171.765797 C142.19242,171.962744 140.378992,172.215961 138.663968,172.525449" id="Shape" fill="#CE0E2D"></path>
                <path d="M77.2182861,169.993275 C77.2182861,169.993275 71.1875843,170.879536 64.1025641,172.314435 C64.1025641,172.314435 57.9875169,177.674203 55.8788799,179.742145 C55.8788799,179.742145 70.9767206,178.64487 77.2182861,169.993275 M63.8073549,181.683478 C67.8603066,186.22673 71.6615467,190.988722 75.1939946,195.948058 C72.4475002,195.200602 69.6037941,194.873342 66.7594467,194.977391 C66.7594467,194.977391 60.0118084,184.215652 54.1076248,181.725681 L47.444332,189.026783 L33.0212551,192.614029 C40.2440292,185.599163 48.1244626,179.295961 56.5536437,173.791536 C44.8193303,175.580961 33.2326565,178.232849 21.8876518,181.725681 C23.7780314,179.176117 25.9261494,176.828468 28.2979082,174.72 C44.6516721,170.135215 61.4467196,167.305744 78.3991228,166.27942 L83.6285425,170.837333 C83.6285425,170.837333 80.5077598,176.239304 63.638664,181.472464" id="Shape" fill="#CE0E2D"></path>
            </g>
        </g>
    </g>
</svg>